<?xml version="1.0" standalone="no"?>
<!DOCTYPE svg PUBLIC "-//W3C//DTD SVG 20010904//EN"
 "http://www.w3.org/TR/2001/REC-SVG-20010904/DTD/svg10.dtd">
<svg version="1.0" xmlns="http://www.w3.org/2000/svg"
 width="1024.000000pt" height="1024.000000pt" viewBox="0 0 1024.000000 1024.000000"
 preserveAspectRatio="xMidYMid meet">
<metadata>
Created by potrace 1.14, written by Peter Selinger 2001-2017
</metadata>
<g transform="translate(0.000000,1024.000000) scale(0.100000,-0.100000)"
fill="#000000" stroke="none">
<path d="M4703 10045 c9 -21 -14 -31 -28 -12 -7 9 -14 15 -16 12 -3 -2 -38 -5
-79 -6 -41 -1 -81 -7 -87 -12 -9 -6 -15 -4 -19 6 -6 17 -44 11 -44 -7 0 -6 -7
-2 -15 8 -13 17 -15 17 -15 3 0 -17 -29 -37 -52 -36 -7 0 -3 5 10 11 21 11 30
28 15 28 -5 0 -35 -16 -68 -35 -33 -20 -68 -38 -77 -41 -10 -4 -18 -10 -18
-15 0 -5 -5 -9 -11 -9 -6 0 -23 -8 -37 -19 -15 -10 -51 -21 -81 -24 -50 -6
-91 -18 -289 -84 -47 -16 -84 -36 -103 -55 -17 -18 -35 -28 -43 -25 -10 4 -13
1 -9 -9 4 -10 0 -12 -11 -8 -10 4 -19 -2 -27 -19 -9 -19 -25 -28 -78 -42 -36
-9 -76 -21 -89 -26 -13 -5 -28 -7 -33 -3 -19 12 -224 -179 -215 -202 4 -10 0
-14 -11 -12 -12 2 -17 -4 -18 -22 0 -18 -6 -26 -22 -28 -12 -2 -29 -14 -38
-28 -9 -14 -20 -22 -25 -19 -21 13 -95 -52 -106 -92 -3 -12 -13 -22 -22 -22
-31 0 -87 -10 -147 -26 -56 -15 -87 -33 -145 -85 -14 -12 -35 -29 -47 -37 -13
-9 -23 -22 -23 -30 0 -8 -4 -12 -9 -9 -9 6 -71 -60 -71 -76 0 -8 -58 -99 -80
-125 -15 -18 -33 -16 -26 3 3 8 2 12 -4 9 -6 -3 -10 -11 -10 -17 0 -5 -22 -34
-49 -64 -30 -33 -54 -70 -62 -98 -7 -25 -17 -46 -21 -46 -4 0 -8 -13 -8 -30 0
-42 -16 -38 -29 8 -10 36 -10 35 -5 -15 2 -29 12 -71 20 -95 11 -31 14 -61 9
-111 -7 -79 8 -166 35 -199 26 -31 26 -5 1 48 -24 50 -36 137 -18 131 6 -2 14
-22 17 -44 9 -64 103 -163 198 -208 63 -31 74 -39 70 -58 -3 -18 1 -22 23 -23
45 -2 56 -11 63 -49 6 -28 3 -42 -10 -56 -16 -18 -16 -19 4 -19 15 0 22 -6 22
-19 0 -33 11 -51 31 -51 21 0 23 -4 10 -28 -6 -11 -4 -31 5 -57 7 -22 14 -53
14 -68 0 -15 7 -42 16 -60 19 -35 34 -234 21 -269 -4 -11 -10 -74 -14 -139 -3
-66 -10 -119 -15 -119 -13 0 -10 -27 5 -42 8 -7 12 -18 10 -24 -2 -7 28 -43
67 -82 66 -67 86 -101 58 -103 -7 0 -3 -5 10 -11 12 -6 25 -21 28 -33 7 -30
-33 -109 -89 -170 -54 -61 -84 -110 -121 -195 -16 -36 -54 -117 -85 -180 -55
-113 -56 -117 -56 -202 0 -81 2 -88 31 -125 37 -45 121 -90 184 -98 86 -11 87
-12 104 -62 8 -27 18 -66 22 -88 7 -40 55 -135 77 -153 7 -5 26 -14 42 -19 33
-11 36 -34 7 -67 -11 -11 -17 -35 -17 -65 0 -38 6 -55 33 -88 73 -92 79 -183
22 -318 -10 -24 -12 -41 -11 -118 1 -66 41 -167 66 -167 8 0 15 -7 15 -16 0
-8 5 -12 10 -9 6 3 10 2 10 -4 0 -6 6 -8 14 -5 7 3 16 -1 19 -9 8 -20 134 -14
257 13 52 11 136 27 185 36 212 36 257 45 389 74 77 16 144 26 148 22 8 -8
-80 -144 -102 -157 -6 -4 -30 -48 -54 -98 -52 -109 -101 -169 -165 -201 -25
-13 -127 -49 -226 -80 -99 -32 -216 -70 -260 -86 -44 -16 -165 -57 -270 -90
-293 -95 -309 -100 -330 -109 -11 -5 -49 -16 -85 -25 -370 -95 -358 -90 -465
-156 -38 -23 -146 -85 -240 -137 -93 -52 -179 -103 -191 -114 -11 -10 -23 -19
-27 -19 -43 0 -221 -183 -316 -325 -78 -116 -151 -251 -191 -354 -21 -53 -51
-128 -68 -166 -69 -164 -106 -305 -142 -530 -11 -71 -25 -159 -31 -195 -5 -36
-24 -110 -41 -164 -16 -55 -40 -138 -53 -185 -12 -47 -44 -165 -70 -261 -56
-212 -110 -425 -124 -500 -67 -340 -86 -441 -102 -535 -16 -94 -43 -202 -65
-260 -6 -13 483 -15 4761 -15 l4766 0 -8 23 c-10 30 -9 66 12 250 22 196 17
498 -10 621 -19 87 -17 119 14 293 52 290 52 513 1 761 -47 231 -99 374 -221
605 -68 130 -76 140 -138 186 -61 45 -96 77 -161 146 -14 14 -41 35 -61 45
-20 11 -39 26 -42 35 -4 8 -39 36 -79 62 -40 26 -113 79 -163 118 -49 39 -121
91 -160 115 -73 46 -245 134 -250 128 -2 -2 14 -23 35 -46 24 -26 34 -42 25
-42 -8 0 -15 5 -15 10 0 6 -7 10 -15 10 -8 0 -15 7 -15 15 0 8 -3 15 -7 15 -9
0 -63 47 -143 124 -52 50 -193 149 -270 189 -19 11 -67 37 -106 58 -39 21 -81
39 -92 39 -11 0 -33 7 -48 15 -16 8 -24 15 -19 15 18 0 -57 42 -285 158 -124
63 -262 136 -308 163 -45 27 -142 77 -216 113 -133 63 -156 82 -156 127 0 12
-13 47 -29 78 -36 69 -81 175 -81 189 0 23 -33 107 -53 136 -12 17 -43 56 -68
86 -52 64 -81 112 -98 163 -7 20 -20 43 -29 49 -9 7 -29 29 -43 48 -15 20 -60
54 -105 79 -44 24 -91 52 -105 61 -14 10 -57 27 -95 39 -99 29 -110 40 -119
108 -4 32 -11 63 -15 68 -5 6 -11 46 -15 91 -7 80 -7 81 21 103 32 25 46 23
54 -9 3 -13 11 -25 18 -28 8 -2 12 13 12 55 0 103 22 307 37 342 8 18 19 65
24 105 5 39 16 95 24 123 38 130 45 162 51 215 3 32 10 60 15 63 5 4 9 16 9
28 0 12 7 36 16 52 22 40 59 178 84 310 6 33 17 89 25 125 24 107 34 178 45
319 6 74 13 138 15 142 6 8 10 63 24 287 6 85 14 159 20 166 23 27 11 184 -17
224 -22 31 -24 39 -57 212 -14 69 -25 145 -25 170 0 26 -4 50 -9 55 -6 6 -11
29 -12 53 -2 24 -5 45 -8 47 -4 2 -4 30 -3 63 3 47 7 60 18 55 18 -7 18 7 0
32 -7 11 -17 35 -21 54 -8 36 -37 108 -62 156 -16 29 -50 65 -109 115 -17 14
-33 30 -37 37 -9 14 2 45 14 38 4 -3 6 -12 2 -20 -3 -9 1 -15 11 -15 9 0 16
-4 16 -10 0 -12 40 -34 47 -26 6 5 -39 56 -130 147 -20 21 -46 41 -57 44 -10
3 -22 14 -25 23 -7 21 -130 102 -155 102 -32 0 -50 11 -50 31 0 10 -5 19 -11
19 -6 0 -9 -7 -5 -15 3 -8 1 -15 -4 -15 -6 0 -10 10 -10 23 0 22 -28 39 -112
69 -16 6 -28 15 -28 22 0 6 -15 20 -34 30 -18 10 -39 29 -46 42 -8 13 -16 24
-19 24 -5 0 -100 68 -136 97 -34 28 -69 43 -97 43 -18 1 -44 7 -58 15 -14 8
-34 14 -45 15 -11 0 -33 7 -48 15 -16 8 -46 19 -68 25 -22 6 -37 15 -34 20 6
10 3 11 -137 44 -99 24 -122 25 -197 10 -18 -4 -22 -1 -18 10 5 13 -8 15 -87
14 -51 0 -98 2 -104 5 -20 13 -84 19 -77 8 3 -7 -2 -11 -15 -11 -12 0 -18 5
-15 10 3 6 1 10 -5 10 -7 0 -10 -7 -7 -15z m-386 -72 c-9 -9 -19 -14 -23 -11
-10 10 6 28 24 28 15 0 15 -1 -1 -17z m133 -13 c0 -5 -5 -10 -11 -10 -5 0 -7
5 -4 10 3 6 8 10 11 10 2 0 4 -4 4 -10z m-1060 -354 c0 -3 -4 -8 -10 -11 -5
-3 -10 -1 -10 4 0 6 5 11 10 11 6 0 10 -2 10 -4z m141 -319 c-1 -12 -15 -9
-19 4 -3 6 1 10 8 8 6 -3 11 -8 11 -12z m-1275 -795 c-10 -10 -29 15 -21 28 6
9 10 8 17 -4 6 -10 7 -20 4 -24z m324 -452 c0 -5 -5 -10 -11 -10 -5 0 -7 5 -4
10 3 6 8 10 11 10 2 0 4 -4 4 -10z"/>
<path d="M6681 8734 c0 -11 3 -14 6 -6 3 7 2 16 -1 19 -3 4 -6 -2 -5 -13z"/>
<path d="M2310 8108 c0 -18 18 -34 28 -24 3 4 -2 14 -11 23 -16 16 -17 16 -17
1z"/>
<path d="M2350 8074 c0 -8 28 -34 37 -34 4 -1 26 -9 48 -20 44 -21 75 -25 75
-10 0 5 -17 12 -37 16 -21 3 -57 17 -80 29 -24 13 -43 21 -43 19z"/>
<path d="M6310 5610 c0 -5 5 -10 10 -10 6 0 10 5 10 10 0 6 -4 10 -10 10 -5 0
-10 -4 -10 -10z"/>
</g>
</svg>
